<mxfile host="65bd71144e">
    <diagram id="yAeOvEPYV-Ln9EU6AwpI" name="Страница 1">
        <mxGraphModel dx="890" dy="478" grid="1" gridSize="10" guides="1" tooltips="1" connect="1" arrows="1" fold="1" page="1" pageScale="1" pageWidth="827" pageHeight="1169" math="0" shadow="0">
            <root>
                <mxCell id="0"/>
                <mxCell id="1" parent="0"/>
                <mxCell id="2" value="Микроконтроллер" style="rounded=1;whiteSpace=wrap;html=1;" vertex="1" parent="1">
                    <mxGeometry x="310" y="510" width="180" height="75" as="geometry"/>
                </mxCell>
                <mxCell id="48" value="" style="group" vertex="1" connectable="0" parent="1">
                    <mxGeometry x="60" y="633" width="400" height="108" as="geometry"/>
                </mxCell>
                <mxCell id="4" value="" style="rounded=1;whiteSpace=wrap;html=1;" vertex="1" parent="48">
                    <mxGeometry y="10" width="400" height="98" as="geometry"/>
                </mxCell>
                <mxCell id="42" value="Удобрения&amp;nbsp; &amp;nbsp;&lt;br&gt;&lt;br&gt;&lt;br&gt;&lt;br&gt;&amp;nbsp;" style="rounded=1;whiteSpace=wrap;html=1;" vertex="1" parent="48">
                    <mxGeometry x="247.05882352941177" y="15.660000000000025" width="141.1764705882353" height="86.67" as="geometry"/>
                </mxCell>
                <mxCell id="43" value="Чистая вода&lt;br&gt;&lt;br&gt;&lt;br&gt;&lt;br&gt;" style="rounded=1;whiteSpace=wrap;html=1;" vertex="1" parent="48">
                    <mxGeometry x="164.7058823529412" y="15.659999999999968" width="70.58823529411765" height="86.67" as="geometry"/>
                </mxCell>
                <mxCell id="44" value="Раствор А" style="ellipse;whiteSpace=wrap;html=1;aspect=fixed;" vertex="1" parent="48">
                    <mxGeometry x="256.65882352941173" y="40" width="54.67" height="54.67" as="geometry"/>
                </mxCell>
                <mxCell id="45" value="Раствор В" style="ellipse;whiteSpace=wrap;html=1;aspect=fixed;direction=south;" vertex="1" parent="48">
                    <mxGeometry x="323.7176470588235" y="40" width="54.84" height="54.84" as="geometry"/>
                </mxCell>
                <mxCell id="16" value="" style="group" vertex="1" connectable="0" parent="48">
                    <mxGeometry x="11.764705882352942" width="235.29411764705884" height="106.67" as="geometry"/>
                </mxCell>
                <mxCell id="17" value="Контроль PH&lt;br&gt;&lt;br&gt;&lt;br&gt;&lt;br&gt;&lt;br&gt;" style="rounded=1;whiteSpace=wrap;html=1;" vertex="1" parent="16">
                    <mxGeometry y="20" width="141.1764705882353" height="86.67" as="geometry"/>
                </mxCell>
                <mxCell id="18" value="PH up" style="ellipse;whiteSpace=wrap;html=1;aspect=fixed;" vertex="1" parent="16">
                    <mxGeometry x="9.411764705882353" y="51.33" width="46.67" height="46.67" as="geometry"/>
                </mxCell>
                <mxCell id="19" value="PH down" style="ellipse;whiteSpace=wrap;html=1;aspect=fixed;" vertex="1" parent="16">
                    <mxGeometry x="76.47058823529412" y="51.5" width="46.67" height="46.67" as="geometry"/>
                </mxCell>
                <mxCell id="54" value="" style="group" vertex="1" connectable="0" parent="1">
                    <mxGeometry x="159" y="300" width="510" height="152" as="geometry"/>
                </mxCell>
                <mxCell id="5" value="Датчики" style="text;html=1;strokeColor=none;fillColor=none;align=center;verticalAlign=middle;whiteSpace=wrap;rounded=0;" vertex="1" parent="54">
                    <mxGeometry x="18.21428571428571" width="109.28571428571428" height="40" as="geometry"/>
                </mxCell>
                <mxCell id="53" value="" style="group" vertex="1" connectable="0" parent="54">
                    <mxGeometry y="32" width="510" height="120" as="geometry"/>
                </mxCell>
                <mxCell id="3" value="" style="rounded=1;whiteSpace=wrap;html=1;" vertex="1" parent="53">
                    <mxGeometry width="510" height="120" as="geometry"/>
                </mxCell>
                <mxCell id="37" value="" style="group" vertex="1" connectable="0" parent="53">
                    <mxGeometry x="16.43" y="6.67" width="163.57" height="106.67" as="geometry"/>
                </mxCell>
                <mxCell id="52" value="" style="group" vertex="1" connectable="0" parent="37">
                    <mxGeometry width="163.57" height="106.67" as="geometry"/>
                </mxCell>
                <mxCell id="38" value="Минерализация воды&lt;br&gt;&lt;br&gt;&lt;br&gt;&lt;br&gt;" style="rounded=1;whiteSpace=wrap;html=1;" vertex="1" parent="52">
                    <mxGeometry width="130" height="106.67" as="geometry"/>
                </mxCell>
                <mxCell id="39" value="PH" style="ellipse;whiteSpace=wrap;html=1;aspect=fixed;" vertex="1" parent="52">
                    <mxGeometry x="23.17" y="53.34" width="36.67" height="36.67" as="geometry"/>
                </mxCell>
                <mxCell id="40" value="TDS" style="ellipse;whiteSpace=wrap;html=1;aspect=fixed;" vertex="1" parent="52">
                    <mxGeometry x="72.37" y="53.34" width="36.67" height="36.67" as="geometry"/>
                </mxCell>
                <mxCell id="51" value="" style="group" vertex="1" connectable="0" parent="53">
                    <mxGeometry x="300" y="8" width="200.89" height="107.8" as="geometry"/>
                </mxCell>
                <mxCell id="6" value="Уровни жидкости в гидропонной системе&lt;br&gt;&lt;br&gt;&lt;br&gt;&lt;br&gt;" style="rounded=1;whiteSpace=wrap;html=1;" vertex="1" parent="51">
                    <mxGeometry width="200.89" height="106.67" as="geometry"/>
                </mxCell>
                <mxCell id="9" value="midle" style="ellipse;whiteSpace=wrap;html=1;aspect=fixed;" vertex="1" parent="51">
                    <mxGeometry x="70" y="48" width="54.05" height="54.05" as="geometry"/>
                </mxCell>
                <mxCell id="10" value="max" style="ellipse;whiteSpace=wrap;html=1;aspect=fixed;" vertex="1" parent="51">
                    <mxGeometry x="138" y="46.33" width="54.47" height="54.47" as="geometry"/>
                </mxCell>
                <mxCell id="60" value="min" style="ellipse;whiteSpace=wrap;html=1;aspect=fixed;" vertex="1" parent="51">
                    <mxGeometry x="11" y="46.75" width="54.05" height="54.05" as="geometry"/>
                </mxCell>
                <mxCell id="59" value="Влажность и температура&lt;br&gt;&lt;br&gt;&lt;br&gt;&lt;br&gt;" style="rounded=1;whiteSpace=wrap;html=1;" vertex="1" parent="53">
                    <mxGeometry x="161" y="8" width="129" height="102" as="geometry"/>
                </mxCell>
                <mxCell id="8" value="&lt;font style=&quot;font-size: 24px&quot;&gt;Ф&lt;/font&gt;" style="ellipse;whiteSpace=wrap;html=1;aspect=fixed;" vertex="1" parent="53">
                    <mxGeometry x="171" y="58" width="42" height="42" as="geometry"/>
                </mxCell>
                <mxCell id="61" value="&lt;font style=&quot;font-size: 24px&quot;&gt;Т&lt;/font&gt;" style="ellipse;whiteSpace=wrap;html=1;aspect=fixed;" vertex="1" parent="53">
                    <mxGeometry x="234" y="58" width="42" height="42" as="geometry"/>
                </mxCell>
                <mxCell id="57" value="гидропонный насос" style="ellipse;whiteSpace=wrap;html=1;aspect=fixed;" vertex="1" parent="1">
                    <mxGeometry x="490" y="647" width="80" height="80" as="geometry"/>
                </mxCell>
                <mxCell id="58" value="освещение" style="ellipse;whiteSpace=wrap;html=1;aspect=fixed;" vertex="1" parent="1">
                    <mxGeometry x="590" y="647" width="80" height="80" as="geometry"/>
                </mxCell>
                <mxCell id="62" value="Обогрев" style="ellipse;whiteSpace=wrap;html=1;aspect=fixed;" vertex="1" parent="1">
                    <mxGeometry x="690" y="647" width="80" height="80" as="geometry"/>
                </mxCell>
                <mxCell id="63" value="" style="endArrow=classic;html=1;fontSize=24;exitX=0.5;exitY=1;exitDx=0;exitDy=0;entryX=0;entryY=0.75;entryDx=0;entryDy=0;" edge="1" parent="1" source="39" target="2">
                    <mxGeometry width="50" height="50" relative="1" as="geometry">
                        <mxPoint x="400" y="580" as="sourcePoint"/>
                        <mxPoint x="450" y="530" as="targetPoint"/>
                        <Array as="points">
                            <mxPoint x="217" y="566"/>
                        </Array>
                    </mxGeometry>
                </mxCell>
                <mxCell id="64" value="" style="endArrow=classic;html=1;fontSize=24;exitX=0.5;exitY=1;exitDx=0;exitDy=0;entryX=0;entryY=0.25;entryDx=0;entryDy=0;" edge="1" parent="1" source="40" target="2">
                    <mxGeometry width="50" height="50" relative="1" as="geometry">
                        <mxPoint x="400" y="580" as="sourcePoint"/>
                        <mxPoint x="450" y="530" as="targetPoint"/>
                        <Array as="points">
                            <mxPoint x="266" y="529"/>
                        </Array>
                    </mxGeometry>
                </mxCell>
                <mxCell id="65" value="" style="endArrow=classic;html=1;fontSize=24;exitX=0.5;exitY=1;exitDx=0;exitDy=0;entryX=1;entryY=0.75;entryDx=0;entryDy=0;" edge="1" parent="1" source="10" target="2">
                    <mxGeometry width="50" height="50" relative="1" as="geometry">
                        <mxPoint x="400" y="580" as="sourcePoint"/>
                        <mxPoint x="450" y="530" as="targetPoint"/>
                        <Array as="points">
                            <mxPoint x="624" y="566"/>
                        </Array>
                    </mxGeometry>
                </mxCell>
                <mxCell id="66" value="" style="endArrow=classic;html=1;fontSize=24;exitX=0.5;exitY=1;exitDx=0;exitDy=0;entryX=1;entryY=0.25;entryDx=0;entryDy=0;" edge="1" parent="1" source="9" target="2">
                    <mxGeometry width="50" height="50" relative="1" as="geometry">
                        <mxPoint x="400" y="580" as="sourcePoint"/>
                        <mxPoint x="450" y="530" as="targetPoint"/>
                        <Array as="points">
                            <mxPoint x="556" y="529"/>
                        </Array>
                    </mxGeometry>
                </mxCell>
                <mxCell id="67" value="" style="endArrow=classic;html=1;fontSize=24;exitX=0.5;exitY=1;exitDx=0;exitDy=0;" edge="1" parent="1" source="8">
                    <mxGeometry width="50" height="50" relative="1" as="geometry">
                        <mxPoint x="400" y="580" as="sourcePoint"/>
                        <mxPoint x="351" y="511" as="targetPoint"/>
                    </mxGeometry>
                </mxCell>
                <mxCell id="68" value="" style="endArrow=classic;html=1;fontSize=24;exitX=0.5;exitY=1;exitDx=0;exitDy=0;entryX=0.578;entryY=0.013;entryDx=0;entryDy=0;entryPerimeter=0;" edge="1" parent="1" source="61" target="2">
                    <mxGeometry width="50" height="50" relative="1" as="geometry">
                        <mxPoint x="400" y="580" as="sourcePoint"/>
                        <mxPoint x="450" y="530" as="targetPoint"/>
                    </mxGeometry>
                </mxCell>
                <mxCell id="69" value="" style="endArrow=classic;html=1;fontSize=24;entryX=0.5;entryY=0;entryDx=0;entryDy=0;exitX=0.144;exitY=0.987;exitDx=0;exitDy=0;exitPerimeter=0;" edge="1" parent="1" source="2" target="18">
                    <mxGeometry width="50" height="50" relative="1" as="geometry">
                        <mxPoint x="400" y="580" as="sourcePoint"/>
                        <mxPoint x="450" y="530" as="targetPoint"/>
                        <Array as="points">
                            <mxPoint x="336" y="600"/>
                            <mxPoint x="105" y="600"/>
                        </Array>
                    </mxGeometry>
                </mxCell>
                <mxCell id="70" value="" style="endArrow=classic;html=1;fontSize=24;entryX=1;entryY=0;entryDx=0;entryDy=0;exitX=0.25;exitY=1;exitDx=0;exitDy=0;" edge="1" parent="1" source="2" target="19">
                    <mxGeometry width="50" height="50" relative="1" as="geometry">
                        <mxPoint x="400" y="580" as="sourcePoint"/>
                        <mxPoint x="450" y="530" as="targetPoint"/>
                        <Array as="points">
                            <mxPoint x="355" y="610"/>
                            <mxPoint x="188" y="610"/>
                        </Array>
                    </mxGeometry>
                </mxCell>
                <mxCell id="21" value="Модули&amp;nbsp; долива" style="text;html=1;strokeColor=none;fillColor=none;align=center;verticalAlign=middle;whiteSpace=wrap;rounded=0;" vertex="1" parent="1">
                    <mxGeometry x="50.00352941176472" y="739.67" width="188.23529411764707" height="30" as="geometry"/>
                </mxCell>
                <mxCell id="75" value="" style="endArrow=classic;html=1;fontSize=24;entryX=0.5;entryY=0;entryDx=0;entryDy=0;exitX=0.35;exitY=0.987;exitDx=0;exitDy=0;exitPerimeter=0;" edge="1" parent="1" source="2" target="43">
                    <mxGeometry width="50" height="50" relative="1" as="geometry">
                        <mxPoint x="400" y="660" as="sourcePoint"/>
                        <mxPoint x="450" y="610" as="targetPoint"/>
                        <Array as="points">
                            <mxPoint x="374" y="621"/>
                            <mxPoint x="260" y="620"/>
                        </Array>
                    </mxGeometry>
                </mxCell>
                <mxCell id="76" value="" style="endArrow=classic;html=1;fontSize=24;entryX=0;entryY=0;entryDx=0;entryDy=0;exitX=0.467;exitY=0.987;exitDx=0;exitDy=0;exitPerimeter=0;" edge="1" parent="1" source="2" target="44">
                    <mxGeometry width="50" height="50" relative="1" as="geometry">
                        <mxPoint x="400" y="660" as="sourcePoint"/>
                        <mxPoint x="450" y="610" as="targetPoint"/>
                        <Array as="points">
                            <mxPoint x="394" y="630"/>
                            <mxPoint x="325" y="630"/>
                        </Array>
                    </mxGeometry>
                </mxCell>
                <mxCell id="77" value="" style="endArrow=classic;html=1;fontSize=24;exitX=0.561;exitY=0.987;exitDx=0;exitDy=0;exitPerimeter=0;entryX=0;entryY=0.5;entryDx=0;entryDy=0;" edge="1" parent="1" source="2" target="45">
                    <mxGeometry width="50" height="50" relative="1" as="geometry">
                        <mxPoint x="400" y="660" as="sourcePoint"/>
                        <mxPoint x="450" y="610" as="targetPoint"/>
                        <Array as="points">
                            <mxPoint x="411" y="630"/>
                        </Array>
                    </mxGeometry>
                </mxCell>
                <mxCell id="78" value="" style="endArrow=classic;html=1;fontSize=24;entryX=0.5;entryY=0;entryDx=0;entryDy=0;exitX=0.639;exitY=1;exitDx=0;exitDy=0;exitPerimeter=0;" edge="1" parent="1" source="2" target="57">
                    <mxGeometry width="50" height="50" relative="1" as="geometry">
                        <mxPoint x="400" y="660" as="sourcePoint"/>
                        <mxPoint x="450" y="610" as="targetPoint"/>
                        <Array as="points">
                            <mxPoint x="425" y="630"/>
                            <mxPoint x="530" y="630"/>
                        </Array>
                    </mxGeometry>
                </mxCell>
                <mxCell id="79" value="" style="endArrow=classic;html=1;fontSize=24;entryX=0.5;entryY=0;entryDx=0;entryDy=0;exitX=0.75;exitY=1;exitDx=0;exitDy=0;" edge="1" parent="1" source="2" target="58">
                    <mxGeometry width="50" height="50" relative="1" as="geometry">
                        <mxPoint x="400" y="660" as="sourcePoint"/>
                        <mxPoint x="450" y="610" as="targetPoint"/>
                        <Array as="points">
                            <mxPoint x="445" y="620"/>
                            <mxPoint x="630" y="620"/>
                        </Array>
                    </mxGeometry>
                </mxCell>
                <mxCell id="80" value="" style="endArrow=classic;html=1;fontSize=24;entryX=0.5;entryY=0;entryDx=0;entryDy=0;exitX=0.9;exitY=1.027;exitDx=0;exitDy=0;exitPerimeter=0;" edge="1" parent="1" source="2" target="62">
                    <mxGeometry width="50" height="50" relative="1" as="geometry">
                        <mxPoint x="400" y="660" as="sourcePoint"/>
                        <mxPoint x="450" y="610" as="targetPoint"/>
                        <Array as="points">
                            <mxPoint x="472" y="610"/>
                            <mxPoint x="730" y="610"/>
                        </Array>
                    </mxGeometry>
                </mxCell>
                <mxCell id="81" value="" style="endArrow=classic;html=1;fontSize=24;entryX=0.75;entryY=0;entryDx=0;entryDy=0;exitX=0.5;exitY=1;exitDx=0;exitDy=0;" edge="1" parent="1" source="60" target="2">
                    <mxGeometry width="50" height="50" relative="1" as="geometry">
                        <mxPoint x="310" y="560" as="sourcePoint"/>
                        <mxPoint x="360" y="510" as="targetPoint"/>
                        <Array as="points">
                            <mxPoint x="497" y="480"/>
                            <mxPoint x="445" y="480"/>
                        </Array>
                    </mxGeometry>
                </mxCell>
            </root>
        </mxGraphModel>
    </diagram>
</mxfile>